<svg xmlns="http://www.w3.org/2000/svg" width="800" height="482" viewBox="0 -1 800 484">
  <g id="Group_1" data-name="Group 1" >
    <g id="AS_logo" >
      <path id="Path_22" data-isoutline="1" stroke="#fff" stroke-width="1" ata-name="Path 22" d="M229.838,294.913c0-16.076,4.3-25.251,13.453-32.229,8.059-6.438,19.873-6.959,47.3-21.473,0,11.777-.539,26.869-.539,51.079,0,28.99-16.674,39.746-34.967,39.746-16.113,0-25.25-13.955-25.25-37.123m1.6-111.779c.539-25.289,7.537-39.8,31.727-39.8,19.334,0,27.43,11.276,27.43,29.048,0,22.032-4.857,26.349-31.188,33.308-24.191,6.476-56.457,11.835-77.969,23.689-21.492,11.835-35.486,40.286-35.486,74.171,0,62.914,28.49,88.705,77.41,88.705,29.029,0,56.457-15.073,68.293-40.863h1.078c.541,11.256,1.6,23.092,4.838,33.308h83.848c-10.2-12.876-10.2-40.825-10.2-62.876V172.379c0-61.276-31.709-86.026-103.221-86.026-36.025,0-60.736,4.838-81.188,18.832-20.432,13.956-32.266,38.146-32.787,77.949Z" transform="translate(-0.07 -0.394)" fill="#fff"/>
      <path id="Path_23" data-isoutline="1" stroke="#fff" stroke-width="1" data-name="Path 23" d="M498.768,292.213c.578,12.953,1.619,24.21,5.936,32.807,4.818,8.1,12.877,13.492,26.871,13.492,20.432,0,31.148-12.914,31.148-29.606,0-13.415-6.4-26.291-33.309-35.466-71.492-24.191-105.879-38.146-105.879-99.461,0-58.038,40.844-87.626,110.7-87.626,81.768,0,105.4,39.784,105.4,81.689v9.676H562.22v-5.339c0-25.289-10.215-32.286-28.488-32.286-23.131,0-29.568,11.276-29.568,26.87,0,51.639,139.244,17.194,139.244,130.147,0,58.558-39.244,95.1-111.295,95.1-77.949,0-110.756-28.99-110.756-87.047V292.214h77.411Z" transform="translate(-0.197 -0.394)" fill="#fff"/>
      <path id="Path_24" data-isoutline="1" stroke="#fff" stroke-width="1" data-name="Path 24" d="M0,.058H136.025V60.134h-55.4v361.75h55.4V482H0Z" fill="#fff"/>
      <path id="Path_25" data-isoutline="1" stroke="#fff" stroke-width="1" data-name="Path 25" d="M664.227,421.885h55.4V60.134h-55.4V0H800.271V482H664.227Z" transform="translate(-0.271)" fill="#fff"/>
    </g>
  </g>
</svg>