<svg xmlns="http://www.w3.org/2000/svg" width="800" height="482" viewBox="0 0 800 482">
    <path id="Subtraction_1" data-name="Subtraction 1" d="M663.956,482H136.025V421.885h-55.4V60.134h55.4V.058H0V0H663.956V60.134h55.4V421.885h-55.4V482ZM263.1,142.937a34.8,34.8,0,0,1,12.442,2.04,21.425,21.425,0,0,1,8.523,5.82c4.29,4.869,6.465,12,6.465,21.189a58.576,58.576,0,0,1-1.17,13.52,18.3,18.3,0,0,1-4.55,8.786c-2.191,2.287-5.206,4.181-9.487,5.959a126.275,126.275,0,0,1-15.982,5.042c-6.067,1.624-12.556,3.158-19.427,4.782h0c-10.2,2.41-20.742,4.9-30.826,7.92-11.443,3.424-20.507,7.018-27.711,10.987-10.607,5.841-19.529,15.805-25.8,28.817-6.335,13.139-9.684,28.822-9.684,45.354a170.8,170.8,0,0,0,1.32,21.875,114.39,114.39,0,0,0,3.9,18.527,80.114,80.114,0,0,0,6.378,15.313,62.394,62.394,0,0,0,8.766,12.231A57.579,57.579,0,0,0,177.3,380.38a64.218,64.218,0,0,0,13.258,6.465,83.06,83.06,0,0,0,15.362,3.782,116.507,116.507,0,0,0,17.371,1.231c30.094,0,56.9-16.04,68.293-40.863h1.078c.325,6.761.772,12.176,1.408,17.043A93.961,93.961,0,0,0,297.5,384.3h83.848c-4.531-5.722-7.448-14.88-8.921-28-1.274-11.353-1.274-23.852-1.274-34.879V171.985a140.972,140.972,0,0,0-1.5-21.289,91.185,91.185,0,0,0-4.57-18,66.3,66.3,0,0,0-7.732-14.855,59.619,59.619,0,0,0-10.989-11.844,69.08,69.08,0,0,0-14.341-8.972,97.445,97.445,0,0,0-17.789-6.238,152.07,152.07,0,0,0-21.33-3.642,245.118,245.118,0,0,0-24.967-1.183c-38.117,0-61.639,5.456-81.188,18.833-21.568,14.732-32.293,40.229-32.787,77.949h77.411c.293-13.766,2.516-23.1,6.994-29.385a22.427,22.427,0,0,1,9.646-7.755A37.683,37.683,0,0,1,263.1,142.937ZM421.16,291.82v12.953c0,29.716,8.553,51.074,26.147,65.3,18.109,14.637,45.785,21.752,84.609,21.752,17.722,0,33.8-2.229,47.787-6.625,13.664-4.295,25.4-10.677,34.88-18.968a79.766,79.766,0,0,0,21.371-29.947c4.816-11.687,7.258-25,7.258-39.564,0-67.389-49.652-82.34-89.549-94.353-13.341-4.017-25.942-7.812-34.986-13.139a32.878,32.878,0,0,1-10.746-9.42,22.03,22.03,0,0,1-2.937-6.051,24.535,24.535,0,0,1-1.026-7.185c0-8.62,2-14.927,6.11-19.283a21.888,21.888,0,0,1,9.08-5.582,45.478,45.478,0,0,1,14.378-2.006,42.641,42.641,0,0,1,12.16,1.488,20.3,20.3,0,0,1,8.936,5.171,22.961,22.961,0,0,1,5.51,9.913,55.745,55.745,0,0,1,1.881,15.714v5.339h77.411v-9.676a89.1,89.1,0,0,0-4.97-30.443A66.777,66.777,0,0,0,617.4,111.089c-17.712-16.675-45.759-25.13-83.362-25.13-35.193,0-62.629,7.418-81.544,22.049-19.345,14.963-29.154,37.026-29.154,65.577,0,15.2,2.123,27.635,6.49,38.006a64.776,64.776,0,0,0,19.64,25.646c8.183,6.617,18.683,12.554,33.045,18.685,13.775,5.881,29.953,11.456,46.7,17.124a82.273,82.273,0,0,1,16.557,7.526,40.821,40.821,0,0,1,10.189,8.617A27.724,27.724,0,0,1,561.1,298.6a32.531,32.531,0,0,1,1.42,9.911,33.36,33.36,0,0,1-1.994,11.668,26.384,26.384,0,0,1-5.918,9.395,26.961,26.961,0,0,1-9.749,6.265,37.949,37.949,0,0,1-13.486,2.279c-12.679,0-21.469-4.413-26.871-13.492-4.53-9.021-5.417-21.153-5.936-32.807ZM255.018,331.642a22.515,22.515,0,0,1-10.743-2.542,22.2,22.2,0,0,1-7.924-7.331,36.07,36.07,0,0,1-4.9-11.675,66.5,66.5,0,0,1-1.679-15.575c0-7.97,1.077-14.357,3.294-19.526a29.376,29.376,0,0,1,4.2-6.984,34.159,34.159,0,0,1,5.964-5.719c3.8-3.035,8.313-4.71,15.144-7.246a244.257,244.257,0,0,0,32.158-14.226c0,4.836-.092,10.281-.2,16.586v.012c-.152,9.006-.341,20.215-.341,34.481a54.11,54.11,0,0,1-2.891,18.44,32.531,32.531,0,0,1-7.732,12.3C273.339,328.529,264.922,331.642,255.018,331.642Z"/>
</svg>