<svg xmlns="http://www.w3.org/2000/svg" width="365" height="68" viewBox="0 0 365 68">
  <g id="XMLID_1_" transform="translate(-67.5 -216)">
    <path id="XMLID_5_" d="M89.9,241.1a14.789,14.789,0,0,1,1.1-5.9,9.428,9.428,0,0,1,3-3.8,11.232,11.232,0,0,1,4.4-2.1,23.517,23.517,0,0,1,5.4-.6,24.841,24.841,0,0,1,7.4.9,10.4,10.4,0,0,1,4.4,2.5,9.243,9.243,0,0,1,2.1,3.9,19.349,19.349,0,0,1,.6,4.9v21a25.124,25.124,0,0,0,.3,4.4,13.853,13.853,0,0,0,1,3.3l-9.8.1a13.064,13.064,0,0,1-.8-2.1c-.2-.7-.3-1.4-.5-2.2h-.1a8.943,8.943,0,0,1-4.1,4.1,17.238,17.238,0,0,1-6,.9,10.018,10.018,0,0,1-4.5-.9,8.331,8.331,0,0,1-3-2.6,11.226,11.226,0,0,1-1.6-3.7,19.151,19.151,0,0,1-.5-4.1,17.749,17.749,0,0,1,.6-4.9,9.676,9.676,0,0,1,1.8-3.5,8.342,8.342,0,0,1,3.1-2.4,32.788,32.788,0,0,1,4.5-1.7l5.8-1.6a6.365,6.365,0,0,0,3.2-1.6,4.589,4.589,0,0,0,.9-3.1,5.721,5.721,0,0,0-1.1-3.6c-.7-.9-1.9-1.3-3.6-1.3a4.369,4.369,0,0,0-3.5,1.4,5.766,5.766,0,0,0-1.2,3.8v1.1H90l-.1-.6Zm16.4,9.9a12.841,12.841,0,0,1-2.1.7,7.3,7.3,0,0,0-4.4,2.2,6.043,6.043,0,0,0-1.3,4.2,8.025,8.025,0,0,0,.9,3.9,3.109,3.109,0,0,0,3,1.6,7.613,7.613,0,0,0,2.1-.3,5.64,5.64,0,0,0,2-1.1,5.755,5.755,0,0,0,1.5-1.9,6.088,6.088,0,0,0,.6-2.8v-7.9A7.114,7.114,0,0,1,106.3,251Z"/>
    <path id="XMLID_8_" d="M145.5,265.5a10.337,10.337,0,0,1-3.9,3.9,11.89,11.89,0,0,1-5.3,1.1c-4.3,0-7.4-1.6-9.5-4.8-2-3.2-3-8.5-3-16,0-7.4,1-12.8,3-16.1s5.2-4.9,9.5-4.9a9.493,9.493,0,0,1,5,1.2,13.771,13.771,0,0,1,3.8,3.5h.1V216.6h10.5v53.1H145.6v-4.2Zm-10.1-6a4.217,4.217,0,0,0,4.4,3.3,4.326,4.326,0,0,0,4.5-3.3,34.9,34.9,0,0,0,1-9.8c0-4.4-.3-7.6-1-9.8a4.326,4.326,0,0,0-4.5-3.3,4.217,4.217,0,0,0-4.4,3.3,34.9,34.9,0,0,0-1,9.8A34.9,34.9,0,0,0,135.4,259.5Z"/>
    <path id="XMLID_9_" d="M182.8,265.1a9.453,9.453,0,0,1-4.2,4.2,13.818,13.818,0,0,1-5.9,1.2c-3.3,0-5.8-.9-7.5-2.6-1.8-1.7-2.6-4.6-2.6-8.6V229.6h10.3v27.5c0,2.1.3,3.5,1,4.3a4.163,4.163,0,0,0,3.3,1.2q5.4,0,5.4-6.6V229.5h10.3v40H183v-4.7l-.2.3Z"/>
    <rect id="XMLID_10_" width="10.3" height="53.1" transform="translate(199.9 216.6)"/>
    <path id="XMLID_11_" d="M230.7,218.3v11.4h6.2v6.9h-6.2v21.7a5.947,5.947,0,0,0,.7,3.4c.5.7,1.5,1,3.1,1h1.2c.4,0,.8-.1,1.2-.1v7.2c-1.2,0-2.3,0-3.5.1-1.1.1-2.3.1-3.5.1a23.882,23.882,0,0,1-5.1-.4,5.44,5.44,0,0,1-3-1.6,6.281,6.281,0,0,1-1.4-3.2,23.881,23.881,0,0,1-.4-5.1v-23h-5.4v-6.9H220V218.4h10.7Z"/>
    <path id="XMLID_12_" d="M261.3,258a6.443,6.443,0,0,0,1.4,4.2,5.139,5.139,0,0,0,4.1,1.6,5.867,5.867,0,0,0,3.9-1.2,4.333,4.333,0,0,0,1.5-3.6,3.43,3.43,0,0,0-1.2-2.9,9.187,9.187,0,0,0-2.7-1.6l-7.6-2.6a14.324,14.324,0,0,1-6.7-4.2,10.442,10.442,0,0,1-2.3-6.9,11.791,11.791,0,0,1,.9-4.6,10.184,10.184,0,0,1,2.7-3.8,13.808,13.808,0,0,1,4.8-2.6,24.283,24.283,0,0,1,7.1-1c4.9,0,8.5,1,10.9,3,2.3,2,3.5,4.8,3.5,8.5v1.6H272a8.346,8.346,0,0,0-1.1-4.7c-.7-1-1.9-1.5-3.7-1.5a6.147,6.147,0,0,0-3.6,1.1,3.682,3.682,0,0,0-1.5,3.2,3.942,3.942,0,0,0,1,2.7,7.043,7.043,0,0,0,3.7,2l6.5,2.1c3.4,1.1,5.8,2.5,7.2,4.3a11.415,11.415,0,0,1,2.1,7.2,11.75,11.75,0,0,1-1.2,5.5,11.2,11.2,0,0,1-3.2,3.9,12.916,12.916,0,0,1-4.9,2.2,30.351,30.351,0,0,1-6.3.7,31.275,31.275,0,0,1-7.5-.8,12.022,12.022,0,0,1-4.8-2.4,8.8,8.8,0,0,1-2.5-4,17.217,17.217,0,0,1-.7-5.2v-1.4h9.8V258Z"/>
    <path id="XMLID_13_" d="M294.3,229.7l5,28.4h.1l5.3-28.4h11.8l5.6,28.4h.2l5.1-28.4h10.4l-9.1,40.1H316.3l-5.6-28.5h-.2l-5.2,28.5H292.7l-9.3-40.1Z"/>
    <path id="XMLID_16_" d="M353.3,216v8.7H341.7V216Zm0,13.7v40H341.7v-40h11.6Z"/>
    <path id="XMLID_17_" d="M369,229.7v4.1h.2a12.3,12.3,0,0,1,4.4-3.9,13.2,13.2,0,0,1,5.9-1.2,11.005,11.005,0,0,1,6.2,1.6,8.171,8.171,0,0,1,3.4,4.7h.2a9.325,9.325,0,0,1,3.9-4.8,11.935,11.935,0,0,1,6.4-1.6c3.6,0,6.2,1,7.8,3.1,1.7,2.1,2.5,5,2.5,8.9v29.1H399.3v-28a6.254,6.254,0,0,0-1-3.9,3.577,3.577,0,0,0-3.2-1.3,5.061,5.061,0,0,0-4,1.6c-1,1.1-1.5,2.8-1.5,5.2v26.4H379v-28a6.254,6.254,0,0,0-1-3.9,3.577,3.577,0,0,0-3.2-1.3,5.061,5.061,0,0,0-4,1.6c-1,1.1-1.5,2.8-1.5,5.2v26.4H358.7v-40H369Z"/>
    <path id="XMLID_18_" d="M67.5,217.2H86.3v8.5H78.8v49.8h7.5V284H67.5Z"/>
    <path id="XMLID_19_" d="M432.5,284H413.7v-8.5h7.5V225.7h-7.5v-8.5h18.8Z"/>
  </g>
</svg>
