<svg xmlns="http://www.w3.org/2000/svg" width="719.352" height="482.001" viewBox="0 0 719.352 482.001">
  <path id="Subtraction_1" data-name="Subtraction 1" d="M543.956,293H16.025V232.885h-55.4V-128.866h55.4v-60.077H-120V-189H543.956v60.135h55.4V232.885h-55.4V293ZM143.1-46.063a34.8,34.8,0,0,1,12.443,2.04,21.426,21.426,0,0,1,8.523,5.82c4.29,4.869,6.465,12,6.465,21.189a58.58,58.58,0,0,1-1.17,13.521,18.3,18.3,0,0,1-4.55,8.786c-2.191,2.287-5.206,4.181-9.487,5.959a126.274,126.274,0,0,1-15.982,5.042c-6.069,1.625-12.56,3.159-19.432,4.783-10.2,2.41-20.741,4.9-30.827,7.92-11.443,3.424-20.507,7.018-27.711,10.987C50.762,45.823,41.839,55.788,35.566,68.8c-6.335,13.139-9.684,28.822-9.684,45.354a170.8,170.8,0,0,0,1.32,21.875,114.4,114.4,0,0,0,3.9,18.527,80.114,80.114,0,0,0,6.378,15.313A62.4,62.4,0,0,0,46.242,182.1,57.58,57.58,0,0,0,57.3,191.38a64.212,64.212,0,0,0,13.258,6.465,83.054,83.054,0,0,0,15.362,3.782,116.51,116.51,0,0,0,17.371,1.231c30.094,0,56.9-16.04,68.293-40.863h1.078c.325,6.761.772,12.176,1.408,17.043A93.97,93.97,0,0,0,177.5,195.3h83.848c-4.531-5.722-7.448-14.88-8.921-28-1.274-11.353-1.274-23.852-1.274-34.879V-17.015a140.968,140.968,0,0,0-1.5-21.289,91.185,91.185,0,0,0-4.57-18,66.3,66.3,0,0,0-7.732-14.855,59.622,59.622,0,0,0-10.989-11.844,69.08,69.08,0,0,0-14.341-8.972,97.446,97.446,0,0,0-17.789-6.238,152.078,152.078,0,0,0-21.33-3.642,245.118,245.118,0,0,0-24.967-1.183c-38.117,0-61.638,5.456-81.188,18.833C45.177-69.477,34.452-43.979,33.958-6.26h77.411c.293-13.766,2.516-23.1,6.994-29.385a22.428,22.428,0,0,1,9.646-7.755A37.683,37.683,0,0,1,143.1-46.063ZM301.16,102.82v12.953c0,29.716,8.553,51.074,26.147,65.295,18.109,14.637,45.785,21.752,84.609,21.752,17.722,0,33.8-2.229,47.786-6.625,13.664-4.3,25.4-10.677,34.88-18.968a79.767,79.767,0,0,0,21.371-29.947c4.816-11.687,7.258-25,7.258-39.564,0-67.389-49.652-82.34-89.549-94.353C420.321,9.347,407.72,5.552,398.676.225a32.878,32.878,0,0,1-10.746-9.42,22.028,22.028,0,0,1-2.937-6.051,24.535,24.535,0,0,1-1.026-7.185c0-8.62,2-14.927,6.11-19.283a21.887,21.887,0,0,1,9.08-5.582A45.478,45.478,0,0,1,413.535-49.3a42.641,42.641,0,0,1,12.16,1.488,20.3,20.3,0,0,1,8.936,5.171,22.96,22.96,0,0,1,5.51,9.913,55.74,55.74,0,0,1,1.882,15.714v5.339h77.411v-9.676a89.1,89.1,0,0,0-4.97-30.443A66.777,66.777,0,0,0,497.4-77.911c-17.712-16.675-45.759-25.13-83.362-25.13-35.193,0-62.629,7.418-81.544,22.049-19.345,14.963-29.154,37.026-29.154,65.577,0,15.2,2.123,27.635,6.49,38.006a64.776,64.776,0,0,0,19.64,25.646c8.183,6.617,18.683,12.554,33.045,18.685,13.774,5.88,29.952,11.455,46.7,17.124a82.276,82.276,0,0,1,16.557,7.526,40.821,40.821,0,0,1,10.189,8.617,27.723,27.723,0,0,1,5.143,9.412,32.528,32.528,0,0,1,1.421,9.91,33.358,33.358,0,0,1-1.994,11.668,26.382,26.382,0,0,1-5.918,9.395,26.961,26.961,0,0,1-9.749,6.265,37.951,37.951,0,0,1-13.487,2.279c-12.679,0-21.469-4.413-26.871-13.492a50.266,50.266,0,0,1-4.371-14.77,166.6,166.6,0,0,1-1.566-18.037ZM135.018,142.642a22.515,22.515,0,0,1-10.743-2.542,22.2,22.2,0,0,1-7.924-7.331,36.07,36.07,0,0,1-4.9-11.675,66.5,66.5,0,0,1-1.679-15.575c0-7.97,1.077-14.357,3.294-19.526a29.375,29.375,0,0,1,4.2-6.984,34.158,34.158,0,0,1,5.964-5.719c3.8-3.035,8.313-4.71,15.144-7.246a244.247,244.247,0,0,0,32.158-14.226c0,4.836-.092,10.281-.2,16.586v.012c-.152,9.006-.341,20.215-.341,34.481a54.11,54.11,0,0,1-2.891,18.44,32.532,32.532,0,0,1-7.732,12.3C153.34,139.529,144.922,142.642,135.018,142.642Z" transform="translate(120 189)" fill="#fff"/>
</svg>
